<svg viewBox="0 0 205 338" version="1.1" xmlns="http://www.w3.org/2000/svg" desc="Created with imagetracer.js version 1.2.6" ><path fill="rgb(230,47,42)" stroke="rgb(230,47,42)" stroke-width="0" opacity="1" d="M 165.5 13 L 168 13.5 L 168 63.5 L 135 96.5 L 135 98 L 132 99.5 L 132 149.5 L 131 150.5 L 131 190 Q 128.33 188.88 129 191.5 L 120 199.5 L 118.5 202 L 112 207.5 Q 112.75 209.75 110.5 209 L 108 213 L 106.5 213 L 100 219.5 Q 100.75 221.75 98.5 221 L 95 222 L 95 136.5 L 93.5 136 L 83.5 147 Q 81.25 146.25 82 148.5 L 79 150 L 77.5 153 L 74.5 155 L 73 158 L 71 158 Q 72.13 160.67 69.5 160 L 63 166.5 L 63 168 L 60.5 169 L 59 165.5 L 59 122.5 L 60 121.5 Q 58 120.5 60 119.5 Q 59.5 115.5 62.5 115 L 66 112.5 L 68 109.5 L 75 103.5 L 77.5 100 L 165.5 13 Z " /><path fill="rgb(230,47,42)" stroke="rgb(230,47,42)" stroke-width="0" opacity="1" d="M 161.5 135 L 161.5 136 L 161.5 135 Z " /><path fill="rgb(230,47,42)" stroke="rgb(230,47,42)" stroke-width="0" opacity="1" d="M 170.5 139 L 170.5 140 L 170.5 139 Z " /><path fill="rgb(230,47,42)" stroke="rgb(230,47,42)" stroke-width="0" opacity="1" d="M 50.5 180 L 50.5 181 L 50.5 180 Z " /><path fill="rgb(230,47,42)" stroke="rgb(230,47,42)" stroke-width="0" opacity="1" d="M 176.5 209 L 175.5 211 L 176.5 209 Z " /><path fill="rgb(230,47,42)" stroke="rgb(230,47,42)" stroke-width="0" opacity="1" d="M 162.5 223 L 162.5 224 L 162.5 223 Z " /><path fill="rgb(230,47,42)" stroke="rgb(230,47,42)" stroke-width="0" opacity="1" d="M 64.5 225 L 64.5 226 L 64.5 225 Z " /><path fill="rgb(230,47,42)" stroke="rgb(230,47,42)" stroke-width="0" opacity="1" d="M 157.5 228 L 157.5 229 L 157.5 228 Z " /><path fill="rgb(230,47,42)" stroke="rgb(230,47,42)" stroke-width="0" opacity="1" d="M 105.5 230 L 104.5 232 L 105.5 230 Z " /><path fill="rgb(230,47,42)" stroke="rgb(230,47,42)" stroke-width="0" opacity="1" d="M 102.5 233 L 102.5 234 L 102.5 233 Z " /><path fill="rgb(230,47,42)" stroke="rgb(230,47,42)" stroke-width="0" opacity="1" d="M 137.5 248 L 137.5 249 L 137.5 248 Z " /><path fill="rgb(230,47,42)" stroke="rgb(230,47,42)" stroke-width="0" opacity="1" d="M 134.5 251 L 134.5 252 L 134.5 251 Z " /><path fill="rgb(230,47,42)" stroke="rgb(230,47,42)" stroke-width="0" opacity="1" d="M 80.5 255 L 79.5 257 L 80.5 255 Z " /><path fill="rgb(230,47,42)" stroke="rgb(230,47,42)" stroke-width="0" opacity="1" d="M 129.5 256 L 129.5 257 L 129.5 256 Z " /><path fill="rgb(230,47,42)" stroke="rgb(230,47,42)" stroke-width="0" opacity="1" d="M 129.5 270 L 131 271.5 L 131 299.5 L 130 302 L 128.5 302 L 103.5 327 L 102 327 L 102 298.5 L 105.5 294 Q 107.75 294.75 107 292.5 L 121 279.5 L 129.5 270 Z " /><path fill="rgb(230,47,42)" stroke="rgb(230,47,42)" stroke-width="0" opacity="1" d="M 85.5 300 L 85.5 301 L 85.5 300 Z " /><path fill="rgb(230,47,42)" stroke="rgb(230,47,42)" stroke-width="0" opacity="1" d="M 82.5 303 L 82.5 304 L 82.5 303 Z " /><path fill="rgb(230,47,42)" stroke="rgb(230,47,42)" stroke-width="0" opacity="1" d="M 77.5 308 L 77.5 309 L 77.5 308 Z " /><path fill="rgb(31,84,166)" stroke="rgb(31,84,166)" stroke-width="0" opacity="1" d="M 167.5 12 L 167.5 13 L 167.5 12 Z " /><path fill="rgb(31,84,166)" stroke="rgb(31,84,166)" stroke-width="0" opacity="1" d="M 48.5 129 L 50 129.5 L 50 180.5 L 54.5 186 L 61.5 187 L 68 182.5 L 70 179.5 L 80.5 169 L 84 168 L 84 217.5 L 81.5 220 L 68.5 225 Q 64.5 224 63.5 226 L 52.5 226 L 38.5 222 L 27 214.5 L 25 211.5 Q 11.71 200.29 13 174.5 L 18 160.5 L 27.5 149 L 33 144.5 Q 32.25 142.25 34.5 143 L 48.5 129 Z " /><path fill="rgb(31,84,166)" stroke="rgb(31,84,166)" stroke-width="0" opacity="1" d="M 142 133 L 153.5 133 L 168.5 138 Q 177.87 142.63 184 150.5 L 189 158.5 L 192 168.5 L 192 183.5 L 187 197.5 L 177.5 209 L 164 221.5 L 162 224.5 L 157 228 L 155.5 231 L 137 248.5 Q 137.75 250.75 135.5 250 L 132.5 254 L 114 271.5 Q 114.75 273.75 112.5 273 L 110 277 Q 107.33 275.88 108 278.5 L 88 297.5 L 86.5 300 L 83.5 302 L 82 305 Q 79.33 303.88 80 306.5 L 68.5 317 L 68 268.5 L 81 255.5 L 81 254 Q 83.67 255.13 83 252.5 L 86 251 Q 84.87 248.33 87.5 249 L 90 245 L 91.5 245 L 98 238.5 Q 97.25 236.25 99.5 237 L 108.5 227 L 115 221.5 Q 114.25 219.25 116.5 220 L 129 207.5 L 129 206 Q 131.67 207.13 131 204.5 L 136.5 199 L 138 199 L 138 197 L 140 197 Q 138.88 194.33 141.5 195 L 154 181.5 Q 156.17 178.67 155 172.5 L 151.5 168 L 142 167 L 142 133 Z " /><path fill="rgb(31,84,166)" stroke="rgb(31,84,166)" stroke-width="0" opacity="1" d="M 95.5 222 L 97 222.5 L 95.5 223 L 95.5 222 Z " /></svg>